<svg xmlns="http://www.w3.org/2000/svg" x="0px" y="0px"
width="64" height="64"
viewBox="0 0 172 172"
style=" fill:#000000;"><g fill="none" fill-rule="nonzero" stroke="none" stroke-width="1" stroke-linecap="butt" stroke-linejoin="miter" stroke-miterlimit="10" stroke-dasharray="" stroke-dashoffset="0" font-family="none" font-weight="none" font-size="none" text-anchor="none" style="mix-blend-mode: normal"><path d="M0,172v-172h172v172z" fill="none"></path><g><path d="M134.12977,87.40758c11.87254,-1.75317 23.58356,4.06009 29.36544,14.57678c5.78188,10.51669 4.41562,23.51958 -3.42589,32.60483c-7.84151,9.08524 -20.50506,12.33739 -31.75391,8.15479c-11.24885,-4.18261 -18.71142,-14.91815 -18.71243,-26.91944c0.00785,-14.24004 10.44083,-26.32779 24.5268,-28.41695z" fill="#00acea"></path><path d="M155.78766,40.89031v52.13078c-6.16553,-4.71806 -13.97682,-6.74267 -21.65789,-5.61352l-23.35773,-16.54492l-31.6957,31.15484l-0.01344,-0.01344l-36.95648,-18.00961l-37.15133,21.54703v-64.65117c0,-7.42133 6.01617,-13.4375 13.4375,-13.4375h123.95758c7.42133,0 13.4375,6.01617 13.4375,13.4375zM84.13219,62.79344c-0.00093,-6.52798 -5.29366,-11.81921 -11.82164,-11.81828c-6.52798,0.00093 -11.81921,5.29366 -11.81828,11.82164c0.00093,6.52798 5.29366,11.81921 11.82164,11.81828c3.13501,0.00009 6.1416,-1.24548 8.35807,-3.46258c2.21647,-2.2171 3.46119,-5.22404 3.46021,-8.35906z" fill="#fedb42"></path><path d="M110.77203,70.86266l23.35773,16.54492c-10.53972,1.55595 -19.35233,8.81797 -22.8942,18.86595c-3.54187,10.04797 -1.23105,21.23096 6.00326,29.05218h-72.05523l33.89273,-33.3082z" fill="#00efd1"></path><path d="M72.31391,50.97516c6.52798,0.00093 11.81921,5.29366 11.81828,11.82164c-0.00093,6.52798 -5.29366,11.81921 -11.82164,11.81828c-6.52798,-0.00093 -11.81921,-5.29366 -11.81828,-11.82164c-0.00009,-3.13501 1.24548,-6.1416 3.46258,-8.35807c2.2171,-2.21647 5.22404,-3.46119 8.35906,-3.46021z" fill="#00efd1"></path><path d="M79.07633,102.0175l-33.89273,33.3082h-26.79102c-7.42133,0 -13.4375,-6.01617 -13.4375,-13.4375v-16.34672l37.15133,-21.54703l36.95648,18.00961z" fill="#00acea"></path><path d="M72.31391,77.30258c8.01181,-0.00093 14.50609,-6.49621 14.50578,-14.50802c-0.00031,-8.01181 -6.49509,-14.50659 -14.5069,-14.5069c-8.01181,-0.00031 -14.50709,6.49397 -14.50802,14.50578c0.00815,8.0098 6.49934,14.50099 14.50914,14.50914zM72.31391,53.66266c5.04372,0.00093 9.13171,4.09042 9.13078,9.13414c-0.00093,5.04372 -4.09042,9.13171 -9.13414,9.13078c-5.04372,-0.00093 -9.13171,-4.09042 -9.13078,-9.13414c0.00574,-5.04172 4.09242,-9.12689 9.13414,-9.13078z" fill="#083863"></path><path d="M152.51563,113.54688h-11.75781v-11.75781c0,-1.48427 -1.20323,-2.6875 -2.6875,-2.6875c-1.48427,0 -2.6875,1.20323 -2.6875,2.6875v11.75781h-11.42187c-1.48427,0 -2.6875,1.20323 -2.6875,2.6875c0,1.48427 1.20323,2.6875 2.6875,2.6875h11.42188v11.42188c0,1.48427 1.20323,2.6875 2.6875,2.6875c1.48427,0 2.6875,-1.20323 2.6875,-2.6875v-11.42187h11.75781c1.48427,0 2.6875,-1.20323 2.6875,-2.6875c0,-1.48427 -1.20323,-2.6875 -2.6875,-2.6875z" fill="#083863"></path><path d="M158.5625,91.73513v-50.84481c0,-8.89126 -7.32109,-16.03094 -16.21234,-16.03094h-123.95758c-4.2567,-0.01343 -8.34307,1.67091 -11.35397,4.67991c-3.0109,3.00901 -4.6978,7.09432 -4.68705,11.35102v80.99789c0,8.89227 7.14976,16.18211 16.04102,16.18211h97.70742c5.86715,5.71094 13.89773,9.19293 22.22361,9.19293c13.2173,-0.0001 25.0244,-8.26364 29.55058,-20.6818c4.52617,-12.41816 0.80563,-26.34121 -9.31169,-34.84632zM18.39258,30.23438h123.95758c5.92762,0 10.83734,4.72832 10.83734,10.65594v47.20493c-5.62481,-2.97476 -12.0141,-4.18958 -18.33816,-3.4867l-22.51184,-15.93889c-1.06361,-0.75227 -2.51309,-0.63588 -3.44302,0.27648l-30.34053,29.81949l-35.26873,-17.18723c-0.79058,-0.39266 -1.7262,-0.3584 -2.48594,0.09104l-33.07271,19.20655v-59.98567c-0.01214,-2.83158 1.10802,-5.55056 3.11122,-7.55186c2.0032,-2.0013 4.72323,-3.1189 7.5548,-3.10408zM80.96094,103.96258l30.09261,-29.59341l16.76093,11.86598c-9.00609,3.20913 -16.06398,10.33982 -19.18055,19.37835c-3.11656,9.03854 -1.95352,19.00387 3.1607,27.0818h-60.0411zM7.72656,121.8882v-14.79805l34.53169,-20.05278l32.24698,15.75345l-30.42116,29.90448h-25.69149c-5.92899,-0.0405 -10.70343,-4.8781 -10.66602,-10.80711zM138.32227,141.85969c-14.37882,0 -26.03516,-11.65634 -26.03516,-26.03516c0,-14.37882 11.65634,-26.03516 26.03516,-26.03516c5.72568,-0.0193 11.2949,1.86787 15.82938,5.36391v0c8.85978,6.78399 12.41116,18.45967 8.82943,29.02799c-3.58173,10.56832 -13.50003,17.67895 -24.6588,17.67841z" fill="#083863"></path></g></g></svg>